<?xml version="1.0" standalone="no"?>
<!DOCTYPE svg PUBLIC "-//W3C//DTD SVG 20010904//EN"
 "http://www.w3.org/TR/2001/REC-SVG-20010904/DTD/svg10.dtd">
<svg version="1.0" xmlns="http://www.w3.org/2000/svg"
 width="84.000000pt" height="84.000000pt" viewBox="0 0 84.000000 84.000000"
 preserveAspectRatio="xMidYMid meet">
<metadata>
Created by potrace 1.14, written by Peter Selinger 2001-2017
</metadata>
<g transform="translate(0.000000,84.000000) scale(0.100000,-0.100000)"
fill="#000000" stroke="none">
<path d="M300 821 c-72 -23 -125 -57 -179 -115 -145 -159 -145 -413 0 -571
153 -166 397 -179 558 -30 187 174 187 456 1 628 -38 36 -80 63 -117 77 -78
30 -190 35 -263 11z m235 -115 c86 -40 142 -103 168 -192 59 -201 -86 -406
-289 -407 -80 0 -177 44 -224 103 -106 133 -101 316 13 432 89 91 218 116 332
64z"/>
<path d="M401 657 c-33 -16 -79 -76 -85 -109 -8 -49 -67 -302 -72 -310 -5 -8
64 -23 72 -15 3 3 21 83 40 178 19 96 41 184 49 196 23 34 55 40 77 13 24 -30
15 -66 -28 -108 -19 -18 -34 -41 -34 -50 0 -10 18 -41 40 -71 41 -55 49 -81
28 -98 -13 -11 -23 -10 -69 2 -35 9 -45 -9 -25 -40 12 -19 25 -25 51 -25 115
0 146 87 70 200 l-33 49 25 23 c58 53 62 106 13 151 -33 30 -78 35 -119 14z"/>
</g>
</svg>
